# xmcd
#
# Track frame offsets: 
#        150
#        15974
#        32186
#        48069
#        63094
#        77086
#        92839
#        106267
#        120659
#        138728
#        155998
#        173714
#        186531
#        200923
#        216817
#
# Disc length: 3124 seconds
#
# Revision: 0
# Processed by: cddbd v1.5.2PL0 Copyright (c) Steve Scherf et al.
# Submitted via: ExactAudioCopy v1.3
#
DISCID=d20c320f
DTITLE=Gord Bamford - Tin Roof
DYEAR=2016
DGENRE=Country
TTITLE0=Tin Roof
TTITLE1=Heard You in a Song
TTITLE2=Don't Let Her Be Gone
TTITLE3=The Country I Grew up On
TTITLE4=Firebird
TTITLE5=Fall in Love If You Want To
TTITLE6=Breakfast Beer
TTITLE7=Where the Wild Things Grow
TTITLE8=When You Look at Me
TTITLE9=Old
TTITLE10=Come Kiss Me Boots
TTITLE11=It's a Good Thing
TTITLE12=When I Go
TTITLE13=You Wear It Well
TTITLE14=Apples
EXTD=
EXTT0=
EXTT1=
EXTT2=
EXTT3=
EXTT4=
EXTT5=
EXTT6=
EXTT7=
EXTT8=
EXTT9=
EXTT10=
EXTT11=
EXTT12=
EXTT13=
EXTT14=
PLAYORDER=
